<svg version="1.1" id="Layer_1" xmlns="http://www.w3.org/2000/svg" xmlns:xlink="http://www.w3.org/1999/xlink" x="0px" y="0px"
	 width="100%" viewBox="0 0 300 300" enable-background="new 0 0 300 300" xml:space="preserve">
<path fill="#ABEBC6" opacity="1.000000" stroke="none"
	d="
M128.000000,1.000000 
	C143.020889,1.000000 158.041794,1.000000 173.257828,1.360268 
	C177.043732,2.513938 180.656219,3.220682 184.221893,4.114216 
	C217.926636,12.560418 246.336014,29.664560 268.162811,56.822880 
	C284.540436,77.201042 295.269043,100.331909 299.097321,126.423615 
	C299.186157,127.029106 300.341888,127.478043 301.000000,128.000000 
	C301.000000,143.020889 301.000000,158.041794 300.639709,173.257843 
	C299.486053,177.043716 298.779388,180.656143 297.885864,184.221756 
	C289.439667,217.926544 272.335510,246.336044 245.177155,268.162811 
	C224.798996,284.540436 201.668137,295.269165 175.576355,299.097321 
	C174.970886,299.186127 174.521957,300.341888 174.000000,301.000000 
	C158.979111,301.000000 143.958206,301.000000 128.742142,300.639709 
	C124.956207,299.486023 121.343719,298.779266 117.778046,297.885742 
	C84.073257,289.439606 55.663918,272.335327 33.837124,245.177063 
	C17.459435,224.798920 6.731020,201.667984 2.902699,175.576309 
	C2.813864,174.970856 1.658101,174.521927 1.000000,174.000000 
	C1.000000,158.979111 1.000000,143.958206 1.360278,128.742157 
	C2.513945,124.956261 3.220672,121.343803 4.114202,117.778145 
	C12.560387,84.073364 29.664566,55.663967 56.822887,33.837166 
	C77.201050,17.459492 100.331970,6.731008 126.423676,2.902701 
	C127.029144,2.813865 127.478058,1.658103 128.000000,1.000000 
M213.445953,185.002991 
	C215.111099,185.002945 216.805222,184.803436 218.435913,185.040421 
	C223.244507,185.739273 224.454910,183.516205 224.251999,179.062637 
	C223.941574,172.249481 224.184814,165.411728 224.165970,158.584503 
	C224.138428,148.610535 219.676727,140.951828 211.475952,135.604965 
	C208.061951,133.379059 204.094452,132.002045 200.002991,130.060791 
	C200.002991,122.405380 200.003189,114.426064 200.002930,106.446747 
	C200.002686,98.573593 200.002487,98.573593 192.170380,97.491066 
	C192.170380,91.793831 191.851456,85.982025 192.261490,80.222107 
	C192.658997,74.638016 188.303818,72.746605 184.948837,70.571602 
	C183.802795,69.828644 180.593826,72.265900 178.328613,73.252869 
	C177.910904,73.434853 177.498917,73.629990 176.755112,73.969154 
	C172.849548,67.952530 168.710770,69.705177 165.732040,73.211464 
	C162.219421,72.066566 158.789734,69.741409 157.125534,70.650002 
	C153.305557,72.735573 149.209274,75.356857 149.871201,81.316391 
	C150.467789,86.687767 149.997040,92.177689 149.997040,97.815529 
	C148.448944,97.895340 147.480621,97.987961 146.512222,97.988724 
	C133.523727,97.999001 120.529839,98.212181 107.549469,97.887703 
	C102.570183,97.763229 101.201332,99.532265 101.407181,104.216743 
	C101.721222,111.363243 101.318298,118.539551 101.561081,125.691620 
	C101.680405,129.206741 100.668274,130.836716 97.102577,131.988678 
	C83.828712,136.276993 76.862251,146.241806 76.831558,160.101456 
	C76.817909,166.262634 77.135384,172.443954 76.733101,178.578781 
	C76.406799,183.554779 77.885750,185.144562 83.077026,185.119751 
	C126.204506,184.913727 169.333405,185.002975 213.445953,185.002991 
M109.499939,231.175323 
	C125.155327,231.175323 140.810715,231.175491 156.466110,231.175278 
	C177.784073,231.174988 199.102112,231.206345 220.419952,231.156281 
	C227.678711,231.139236 231.086960,227.662369 231.166779,220.441376 
	C231.209106,216.611267 231.176163,212.780304 231.175064,208.949738 
	C231.171967,198.230164 228.397980,195.486771 217.481689,195.485168 
	C172.847198,195.478561 128.212708,195.481979 83.578224,195.484360 
	C82.246147,195.484436 80.907799,195.436005 79.583061,195.542755 
	C73.345383,196.045395 69.928268,199.647873 69.840103,205.892181 
	C69.771919,210.721069 69.789635,215.552032 69.834152,220.381470 
	C69.900917,227.624695 73.307304,231.104340 80.520218,231.157181 
	C89.846329,231.225525 99.173317,231.174805 109.499939,231.175323 
z"/>
<path fill="#FFFFFF" opacity="1.000000" stroke="none"
	d="
M127.531342,1.000000 
	C127.478058,1.658103 127.029144,2.813865 126.423676,2.902701 
	C100.331970,6.731008 77.201050,17.459492 56.822887,33.837166 
	C29.664566,55.663967 12.560387,84.073364 4.114202,117.778145 
	C3.220672,121.343803 2.513945,124.956261 1.360278,128.273499 
	C1.000000,85.739693 1.000000,43.479385 1.000000,1.000000 
	C43.020641,1.000000 85.041664,1.000000 127.531342,1.000000 
z"/>
<path fill="#FFFFFF" opacity="1.000000" stroke="none"
	d="
M301.000000,127.531342 
	C300.341888,127.478043 299.186157,127.029106 299.097321,126.423615 
	C295.269043,100.331909 284.540436,77.201042 268.162811,56.822880 
	C246.336014,29.664560 217.926636,12.560418 184.221893,4.114216 
	C180.656219,3.220682 177.043732,2.513938 173.726486,1.360268 
	C216.260300,1.000000 258.520599,1.000000 301.000000,1.000000 
	C301.000000,43.020641 301.000000,85.041664 301.000000,127.531342 
z"/>
<path fill="#FFFFFF" opacity="1.000000" stroke="none"
	d="
M174.468658,301.000000 
	C174.521957,300.341888 174.970886,299.186127 175.576355,299.097321 
	C201.668137,295.269165 224.798996,284.540436 245.177155,268.162811 
	C272.335510,246.336044 289.439667,217.926544 297.885864,184.221756 
	C298.779388,180.656143 299.486053,177.043716 300.639709,173.726501 
	C301.000000,216.260300 301.000000,258.520599 301.000000,301.000000 
	C258.979370,301.000000 216.958344,301.000000 174.468658,301.000000 
z"/>
<path fill="#FFFFFF" opacity="1.000000" stroke="none"
	d="
M1.000000,174.468658 
	C1.658101,174.521927 2.813864,174.970856 2.902699,175.576309 
	C6.731020,201.667984 17.459435,224.798920 33.837124,245.177063 
	C55.663918,272.335327 84.073257,289.439606 117.778046,297.885742 
	C121.343719,298.779266 124.956207,299.486023 128.273483,300.639709 
	C85.739693,301.000000 43.479389,301.000000 1.000000,301.000000 
	C1.000000,258.979370 1.000000,216.958344 1.000000,174.468658 
z"/>
<path fill="#FDFEFF" opacity="1.000000" stroke="none"
	d="
M212.953918,185.002991 
	C169.333405,185.002975 126.204506,184.913727 83.077026,185.119751 
	C77.885750,185.144562 76.406799,183.554779 76.733101,178.578781 
	C77.135384,172.443954 76.817909,166.262634 76.831558,160.101456 
	C76.862251,146.241806 83.828712,136.276993 97.102577,131.988678 
	C100.668274,130.836716 101.680405,129.206741 101.561081,125.691620 
	C101.318298,118.539551 101.721222,111.363243 101.407181,104.216743 
	C101.201332,99.532265 102.570183,97.763229 107.549469,97.887703 
	C120.529839,98.212181 133.523727,97.999001 146.512222,97.988724 
	C147.480621,97.987961 148.448944,97.895340 149.997040,97.815529 
	C149.997040,92.177689 150.467789,86.687767 149.871201,81.316391 
	C149.209274,75.356857 153.305557,72.735573 157.125534,70.650002 
	C158.789734,69.741409 162.219421,72.066566 165.732040,73.211464 
	C168.710770,69.705177 172.849548,67.952530 176.755112,73.969154 
	C177.498917,73.629990 177.910904,73.434853 178.328613,73.252869 
	C180.593826,72.265900 183.802795,69.828644 184.948837,70.571602 
	C188.303818,72.746605 192.658997,74.638016 192.261490,80.222107 
	C191.851456,85.982025 192.170380,91.793831 192.170380,97.491066 
	C200.002487,98.573593 200.002686,98.573593 200.002930,106.446747 
	C200.003189,114.426064 200.002991,122.405380 200.002991,130.060791 
	C204.094452,132.002045 208.061951,133.379059 211.475952,135.604965 
	C219.676727,140.951828 224.138428,148.610535 224.165970,158.584503 
	C224.184814,165.411728 223.941574,172.249481 224.251999,179.062637 
	C224.454910,183.516205 223.244507,185.739273 218.435913,185.040421 
	C216.805222,184.803436 215.111099,185.002945 212.953918,185.002991 
M187.537033,90.541077 
	C187.536469,87.881416 187.387146,85.211349 187.572388,82.564690 
	C187.812515,79.133453 186.524704,76.890106 182.673065,75.546883 
	C179.081635,82.724472 174.929230,79.021744 171.256775,75.600151 
	C165.463806,79.793747 165.463806,79.793747 157.277756,75.284607 
	C156.410416,77.746338 154.974655,79.998535 154.921829,82.282715 
	C154.675888,92.915657 154.812408,103.557449 154.812195,114.196075 
	C154.812088,119.132919 154.812180,124.069763 154.812180,129.173798 
	C165.947891,129.173798 176.483963,129.173798 187.536896,129.173798 
	C187.536896,116.387451 187.536896,103.957680 187.537033,90.541077 
M120.566345,120.976067 
	C118.127831,120.976067 115.689323,120.976067 113.177567,120.976067 
	C113.177567,124.060112 113.177567,126.586594 113.177567,129.249115 
	C123.588615,129.249115 133.622940,129.249115 143.678711,129.249115 
	C143.678711,126.387810 143.678711,123.835548 143.678711,120.976067 
	C136.074173,120.976067 128.811249,120.976067 120.566345,120.976067 
M136.609131,146.047592 
	C135.714371,145.694702 134.769897,144.956345 133.934540,145.064056 
	C131.774567,145.342606 128.717636,145.333374 127.781380,146.671890 
	C126.716217,148.194672 126.662537,151.961166 127.809471,153.098984 
	C129.185379,154.463928 132.437408,154.771957 134.620987,154.314804 
	C139.163177,153.363831 136.225479,149.410110 136.609131,146.047592 
M194.867569,150.329147 
	C195.073395,147.159317 194.624924,144.522400 190.449951,144.975128 
	C188.186203,145.220627 184.817810,143.968811 185.078827,148.070084 
	C185.216431,150.231903 186.161743,154.046524 187.050873,154.138672 
	C189.782318,154.421814 194.115005,156.728912 194.867569,150.329147 
M170.575470,172.878113 
	C175.030045,173.500229 175.261383,170.772003 175.280090,167.383530 
	C175.298477,164.055313 173.868408,162.988419 170.763062,163.084290 
	C167.981583,163.170135 165.266098,162.907303 165.409286,166.993912 
	C165.515060,170.012344 164.910660,173.374847 170.575470,172.878113 
M147.900986,145.114426 
	C147.415359,147.944916 146.929733,150.775406 146.444107,153.605896 
	C148.848450,153.878250 151.297928,154.519348 153.633942,154.233429 
	C154.513794,154.125732 155.649918,151.919479 155.775803,150.585587 
	C156.263489,145.418030 155.564392,144.959351 147.900986,145.114426 
M173.905151,154.219193 
	C176.162613,149.708435 175.722412,145.830353 172.864151,145.048294 
	C167.399323,143.553040 164.516022,146.060791 165.486664,151.626602 
	C166.377258,156.733429 170.446228,153.792801 173.905151,154.219193 
M108.680977,165.169205 
	C108.600174,165.990326 108.533104,166.813049 108.436256,167.632278 
	C107.936142,171.862732 109.981781,172.972946 113.974091,172.986710 
	C118.281960,173.001556 118.343918,170.613983 118.225075,167.540268 
	C118.036812,162.671066 114.879234,161.579178 108.680977,165.169205 
M127.336586,170.951431 
	C129.902466,174.200729 133.605453,173.677689 135.989014,171.881531 
	C137.323715,170.875778 137.454132,166.612320 136.440582,164.720139 
	C135.738373,163.409210 132.068466,163.007584 129.882904,163.317215 
	C125.696693,163.910294 127.520844,167.590805 127.336586,170.951431 
M151.365555,163.125122 
	C148.410675,163.028290 145.476562,162.948074 145.965759,167.308762 
	C146.218674,169.563354 144.965881,172.849533 148.950958,172.767136 
	C151.402695,172.716446 155.211334,174.511139 155.708664,170.158447 
	C156.016342,167.465591 157.464630,163.411102 151.365555,163.125122 
M188.633789,163.134506 
	C187.417984,164.121902 185.299911,165.012329 185.181122,166.117630 
	C184.959076,168.183609 185.259171,171.569595 186.502121,172.233078 
	C188.369583,173.229919 191.782974,173.166336 193.497025,172.009552 
	C194.771561,171.149414 195.117432,167.605591 194.498322,165.706467 
	C194.085114,164.438965 191.250259,163.960922 188.633789,163.134506 
M118.056732,152.983856 
	C118.108231,151.662888 118.089119,150.334610 118.224937,149.022369 
	C118.581741,145.574951 116.746605,144.830780 113.726295,144.908691 
	C110.865128,144.982529 108.513794,144.947510 108.373642,148.878738 
	C108.167419,154.662766 110.167549,155.809494 118.056732,152.983856 
z"/>
<path fill="#FCFEFE" opacity="1.000000" stroke="none"
	d="
M108.999931,231.175323 
	C99.173317,231.174805 89.846329,231.225525 80.520218,231.157181 
	C73.307304,231.104340 69.900917,227.624695 69.834152,220.381470 
	C69.789635,215.552032 69.771919,210.721069 69.840103,205.892181 
	C69.928268,199.647873 73.345383,196.045395 79.583061,195.542755 
	C80.907799,195.436005 82.246147,195.484436 83.578224,195.484360 
	C128.212708,195.481979 172.847198,195.478561 217.481689,195.485168 
	C228.397980,195.486771 231.171967,198.230164 231.175064,208.949738 
	C231.176163,212.780304 231.209106,216.611267 231.166779,220.441376 
	C231.086960,227.662369 227.678711,231.139236 220.419952,231.156281 
	C199.102112,231.206345 177.784073,231.174988 156.466110,231.175278 
	C140.810715,231.175491 125.155327,231.175323 108.999931,231.175323 
M148.179276,208.090042 
	C144.197861,211.199646 143.142960,214.575058 146.091431,216.940704 
	C147.798080,218.309998 151.259628,219.175079 153.001984,218.336319 
	C154.693909,217.521851 156.217102,214.133316 155.999573,212.066101 
	C155.616562,208.426086 152.544983,207.218475 148.179276,208.090042 
z"/>
<path fill="#28A3D3" opacity="1.000000" stroke="none"
	d="
M187.536957,91.034492 
	C187.536896,103.957680 187.536896,116.387451 187.536896,129.173798 
	C176.483963,129.173798 165.947891,129.173798 154.812180,129.173798 
	C154.812180,124.069763 154.812088,119.132919 154.812195,114.196075 
	C154.812408,103.557449 154.675888,92.915657 154.921829,82.282715 
	C154.974655,79.998535 156.410416,77.746338 157.277756,75.284607 
	C165.463806,79.793747 165.463806,79.793747 171.256775,75.600151 
	C174.929230,79.021744 179.081635,82.724472 182.673065,75.546883 
	C186.524704,76.890106 187.812515,79.133453 187.572388,82.564690 
	C187.387146,85.211349 187.536469,87.881416 187.536957,91.034492 
M179.863037,108.897644 
	C182.204636,106.135559 181.151093,104.640541 177.949417,104.518723 
	C173.143234,104.335861 168.316925,104.321968 163.517853,104.581505 
	C162.409698,104.641426 161.377151,106.099274 160.309814,106.913834 
	C161.390610,107.672424 162.446259,109.039642 163.556503,109.085518 
	C168.691315,109.297707 173.841293,109.142609 179.863037,108.897644 
M162.436157,116.274971 
	C161.760849,117.263168 161.085541,118.251373 160.410217,119.239571 
	C161.479599,119.827026 162.529022,120.874107 163.621857,120.921539 
	C168.105377,121.116150 172.615768,121.202438 177.085815,120.891068 
	C178.457657,120.795509 179.732315,119.304420 181.051483,118.452377 
	C179.786789,117.688362 178.555176,116.339470 177.251419,116.265701 
	C172.608536,116.003014 167.941086,116.174149 162.436157,116.274971 
M170.792862,92.816437 
	C168.293823,92.815674 165.756317,92.560356 163.313187,92.929558 
	C162.214737,93.095551 160.321671,95.022545 160.456192,95.280212 
	C162.631180,99.446449 166.600769,97.114182 169.792984,97.387573 
	C170.871704,97.479965 172.123383,95.553139 173.296021,94.549110 
	C172.734940,94.000290 172.173874,93.451469 170.792862,92.816437 
z"/>
<path fill="#2BA4D4" opacity="1.000000" stroke="none" 
	d="
M121.057327,120.976067 
	C128.811249,120.976067 136.074173,120.976067 143.678711,120.976067 
	C143.678711,123.835548 143.678711,126.387810 143.678711,129.249115 
	C133.622940,129.249115 123.588615,129.249115 113.177567,129.249115 
	C113.177567,126.586594 113.177567,124.060112 113.177567,120.976067 
	C115.689323,120.976067 118.127831,120.976067 121.057327,120.976067 
z"/>
<path fill="#2EA5D4" opacity="1.000000" stroke="none" 
	d="
M136.771332,146.454926 
	C136.225479,149.410110 139.163177,153.363831 134.620987,154.314804 
	C132.437408,154.771957 129.185379,154.463928 127.809471,153.098984 
	C126.662537,151.961166 126.716217,148.194672 127.781380,146.671890 
	C128.717636,145.333374 131.774567,145.342606 133.934540,145.064056 
	C134.769897,144.956345 135.714371,145.694702 136.771332,146.454926 
z"/>
<path fill="#2EA5D4" opacity="1.000000" stroke="none" 
	d="
M194.860870,150.749420 
	C194.115005,156.728912 189.782318,154.421814 187.050873,154.138672 
	C186.161743,154.046524 185.216431,150.231903 185.078827,148.070084 
	C184.817810,143.968811 188.186203,145.220627 190.449951,144.975128 
	C194.624924,144.522400 195.073395,147.159317 194.860870,150.749420 
z"/>
<path fill="#30A6D5" opacity="1.000000" stroke="none" 
	d="
M170.146515,172.877731 
	C164.910660,173.374847 165.515060,170.012344 165.409286,166.993912 
	C165.266098,162.907303 167.981583,163.170135 170.763062,163.084290 
	C173.868408,162.988419 175.298477,164.055313 175.280090,167.383530 
	C175.261383,170.772003 175.030045,173.500229 170.146515,172.877731 
z"/>
<path fill="#2EA5D4" opacity="1.000000" stroke="none" 
	d="
M148.338928,145.055939 
	C155.564392,144.959351 156.263489,145.418030 155.775803,150.585587 
	C155.649918,151.919479 154.513794,154.125732 153.633942,154.233429 
	C151.297928,154.519348 148.848450,153.878250 146.444107,153.605896 
	C146.929733,150.775406 147.415359,147.944916 148.338928,145.055939 
z"/>
<path fill="#30A6D4" opacity="1.000000" stroke="none" 
	d="
M173.496857,154.343826 
	C170.446228,153.792801 166.377258,156.733429 165.486664,151.626602 
	C164.516022,146.060791 167.399323,143.553040 172.864151,145.048294 
	C175.722412,145.830353 176.162613,149.708435 173.496857,154.343826 
z"/>
<path fill="#2FA6D4" opacity="1.000000" stroke="none" 
	d="
M108.836258,164.789917 
	C114.879234,161.579178 118.036812,162.671066 118.225075,167.540268 
	C118.343918,170.613983 118.281960,173.001556 113.974091,172.986710 
	C109.981781,172.972946 107.936142,171.862732 108.436256,167.632278 
	C108.533104,166.813049 108.600174,165.990326 108.836258,164.789917 
z"/>
<path fill="#30A6D5" opacity="1.000000" stroke="none" 
	d="
M127.253242,170.532776 
	C127.520844,167.590805 125.696693,163.910294 129.882904,163.317215 
	C132.068466,163.007584 135.738373,163.409210 136.440582,164.720139 
	C137.454132,166.612320 137.323715,170.875778 135.989014,171.881531 
	C133.605453,173.677689 129.902466,174.200729 127.253242,170.532776 
z"/>
<path fill="#30A6D4" opacity="1.000000" stroke="none" 
	d="
M151.796021,163.129089 
	C157.464630,163.411102 156.016342,167.465591 155.708664,170.158447 
	C155.211334,174.511139 151.402695,172.716446 148.950958,172.767136 
	C144.965881,172.849533 146.218674,169.563354 145.965759,167.308762 
	C145.476562,162.948074 148.410675,163.028290 151.796021,163.129089 
z"/>
<path fill="#2EA5D4" opacity="1.000000" stroke="none" 
	d="
M189.066483,163.132034 
	C191.250259,163.960922 194.085114,164.438965 194.498322,165.706467 
	C195.117432,167.605591 194.771561,171.149414 193.497025,172.009552 
	C191.782974,173.166336 188.369583,173.229919 186.502121,172.233078 
	C185.259171,171.569595 184.959076,168.183609 185.181122,166.117630 
	C185.299911,165.012329 187.417984,164.121902 189.066483,163.132034 
z"/>
<path fill="#31A7D5" opacity="1.000000" stroke="none" 
	d="
M117.874161,153.379456 
	C110.167549,155.809494 108.167419,154.662766 108.373642,148.878738 
	C108.513794,144.947510 110.865128,144.982529 113.726295,144.908691 
	C116.746605,144.830780 118.581741,145.574951 118.224937,149.022369 
	C118.089119,150.334610 118.108231,151.662888 117.874161,153.379456 
z"/>
<path fill="#2CA4D4" opacity="1.000000" stroke="none" 
	d="
M148.563034,207.987091 
	C152.544983,207.218475 155.616562,208.426086 155.999573,212.066101 
	C156.217102,214.133316 154.693909,217.521851 153.001984,218.336319 
	C151.259628,219.175079 147.798080,218.309998 146.091431,216.940704 
	C143.142960,214.575058 144.197861,211.199646 148.563034,207.987091 
z"/>
<path fill="#E9F6FA" opacity="1.000000" stroke="none"
	d="
M179.424438,109.008377 
	C173.841293,109.142609 168.691315,109.297707 163.556503,109.085518 
	C162.446259,109.039642 161.390610,107.672424 160.309814,106.913834 
	C161.377151,106.099274 162.409698,104.641426 163.517853,104.581505 
	C168.316925,104.321968 173.143234,104.335861 177.949417,104.518723 
	C181.151093,104.640541 182.204636,106.135559 179.424438,109.008377 
z"/>
<path fill="#F1F9FC" opacity="1.000000" stroke="none"
	d="
M162.859558,116.228012 
	C167.941086,116.174149 172.608536,116.003014 177.251419,116.265701 
	C178.555176,116.339470 179.786789,117.688362 181.051483,118.452377 
	C179.732315,119.304420 178.457657,120.795509 177.085815,120.891068 
	C172.615768,121.202438 168.105377,121.116150 163.621857,120.921539 
	C162.529022,120.874107 161.479599,119.827026 160.410217,119.239578 
	C161.085541,118.251373 161.760849,117.263168 162.859558,116.228012 
z"/>
<path fill="#E8F5FA" opacity="1.000000" stroke="none"
	d="
M171.202835,92.859543 
	C172.173874,93.451469 172.734940,94.000290 173.296021,94.549110 
	C172.123383,95.553139 170.871704,97.479965 169.792984,97.387573 
	C166.600769,97.114182 162.631180,99.446449 160.456192,95.280212 
	C160.321671,95.022545 162.214737,93.095551 163.313187,92.929558 
	C165.756317,92.560356 168.293823,92.815674 171.202835,92.859543 
z"/>
</svg>